<svg width="159" height="44" viewBox="0 0 159 44" fill="none" xmlns="http://www.w3.org/2000/svg">
<path fill-rule="evenodd" clip-rule="evenodd" d="M14.8445 0H7.42188V11.7199H0V19.1425H7.42188V27.5416C7.42188 36.2798 14.5056 43.3635 23.2437 43.3635C31.9819 43.3635 39.0656 36.2798 39.0656 27.5416C39.0656 18.8034 31.9819 11.7197 23.2437 11.7197H14.8445V0ZM14.8445 19.1423H7.4226V11.7199H14.8445V19.1423ZM23.245 19.1426H14.8457V27.5418C14.8457 32.1806 18.6062 35.9411 23.245 35.9411C27.8837 35.9411 31.6442 32.1806 31.6442 27.5418C31.6442 22.9031 27.8837 19.1426 23.245 19.1426Z" fill="url(#paint0_linear_557_76)"/>
<path d="M65.3034 29.1009C65.3034 30.0093 65.1299 30.8615 64.7829 31.6575C64.4359 32.4536 63.9613 33.1527 63.3592 33.7548C62.7672 34.3468 62.0732 34.8162 61.2772 35.1632C60.4811 35.5102 59.6289 35.6837 58.7206 35.6837H47.7441V13.7308H58.7206C59.6289 13.7308 60.4811 13.9043 61.2772 14.2514C62.0732 14.5984 62.7672 15.0729 63.3592 15.6751C63.9613 16.267 64.4359 16.961 64.7829 17.7571C65.1299 18.5531 65.3034 19.4053 65.3034 20.3137C65.3034 20.7219 65.2473 21.1403 65.135 21.569C65.0227 21.9976 64.8645 22.411 64.6604 22.809C64.4563 23.207 64.2114 23.5693 63.9256 23.8959C63.6398 24.2225 63.3235 24.493 62.9765 24.7073C63.3337 24.9012 63.6551 25.1666 63.9409 25.5034C64.2267 25.8299 64.4716 26.1923 64.6757 26.5903C64.8799 26.9883 65.0329 27.4068 65.135 27.8456C65.2473 28.2743 65.3034 28.6927 65.3034 29.1009ZM52.1378 31.2901H58.7206C59.0268 31.2901 59.3125 31.234 59.5779 31.1217C59.8432 31.0094 60.0729 30.8564 60.2668 30.6624C60.4709 30.4583 60.6291 30.2236 60.7414 29.9582C60.8536 29.6929 60.9098 29.4071 60.9098 29.1009C60.9098 28.7948 60.8536 28.509 60.7414 28.2436C60.6291 27.9783 60.4709 27.7487 60.2668 27.5547C60.0729 27.3506 59.8432 27.1924 59.5779 27.0802C59.3125 26.9679 59.0268 26.9118 58.7206 26.9118H52.1378V31.2901ZM52.1378 22.5181H58.7206C59.0268 22.5181 59.3125 22.462 59.5779 22.3497C59.8432 22.2375 60.0729 22.0844 60.2668 21.8905C60.4709 21.6864 60.6291 21.4516 60.7414 21.1863C60.8536 20.9107 60.9098 20.6198 60.9098 20.3137C60.9098 20.0075 60.8536 19.7217 60.7414 19.4564C60.6291 19.191 60.4709 18.9614 60.2668 18.7675C60.0729 18.5633 59.8432 18.4052 59.5779 18.2929C59.3125 18.1806 59.0268 18.1245 58.7206 18.1245H52.1378V22.5181Z" fill="white"/>
<path d="M73.1109 14.8331C73.1109 15.2209 73.0344 15.5832 72.8813 15.92C72.7384 16.2568 72.5394 16.5528 72.2842 16.8079C72.0291 17.0529 71.728 17.2519 71.381 17.405C71.0442 17.5479 70.6819 17.6193 70.2941 17.6193C69.9063 17.6193 69.5388 17.5479 69.1918 17.405C68.8551 17.2519 68.5591 17.0529 68.3039 16.8079C68.059 16.5528 67.86 16.2568 67.7069 15.92C67.564 15.5832 67.4926 15.2209 67.4926 14.8331C67.4926 14.4555 67.564 14.0983 67.7069 13.7615C67.86 13.4145 68.059 13.1185 68.3039 12.8736C68.5591 12.6184 68.8551 12.4194 69.1918 12.2765C69.5388 12.1234 69.9063 12.0469 70.2941 12.0469C70.6819 12.0469 71.0442 12.1234 71.381 12.2765C71.728 12.4194 72.0291 12.6184 72.2842 12.8736C72.5394 13.1185 72.7384 13.4145 72.8813 13.7615C73.0344 14.0983 73.1109 14.4555 73.1109 14.8331ZM72.3914 35.6837H68.1815V19.288H72.3914V35.6837Z" fill="white"/>
<path d="M83.8118 35.6837C82.8014 35.6837 81.8523 35.4949 80.9644 35.1173C80.0764 34.7295 79.2957 34.2039 78.6221 33.5405C77.9587 32.8669 77.4331 32.0862 77.0453 31.1983C76.6677 30.3103 76.4789 29.3612 76.4789 28.3508V23.4826H74.4428V19.3186H76.4789V12.7664H80.6429V19.3186H86.9807V23.4826H80.6429V28.3508C80.6429 28.7897 80.7245 29.203 80.8878 29.5908C81.0511 29.9684 81.2756 30.3001 81.5614 30.5859C81.8472 30.8717 82.184 31.1013 82.5718 31.2748C82.9596 31.4381 83.373 31.5197 83.8118 31.5197H86.9807V35.6837H83.8118Z" fill="white"/>
<path d="M95.8599 31.6728C96.0232 31.7239 96.1865 31.7596 96.3498 31.78C96.5131 31.7902 96.6763 31.7953 96.8396 31.7953C97.2479 31.7953 97.6408 31.7392 98.0184 31.6269C98.396 31.5146 98.7481 31.3564 99.0747 31.1523C99.4115 30.938 99.7075 30.6829 99.9626 30.3869C100.228 30.0807 100.442 29.7439 100.606 29.3765L103.667 32.4536C103.28 33.0047 102.831 33.4997 102.32 33.9385C101.82 34.3774 101.274 34.7499 100.682 35.0561C100.1 35.3623 99.483 35.5919 98.8298 35.745C98.1868 35.9083 97.5234 35.9899 96.8396 35.9899C95.6864 35.9899 94.5994 35.7756 93.5789 35.347C92.5685 34.9183 91.6806 34.3213 90.9151 33.5558C90.1599 32.7904 89.5628 31.882 89.124 30.8308C88.6851 29.7694 88.4657 28.606 88.4657 27.3404C88.4657 26.0443 88.6851 24.8604 89.124 23.7888C89.5628 22.7171 90.1599 21.8037 90.9151 21.0485C91.6806 20.2932 92.5685 19.7064 93.5789 19.288C94.5994 18.8695 95.6864 18.6603 96.8396 18.6603C97.5234 18.6603 98.1919 18.7419 98.8451 18.9052C99.4983 19.0685 100.116 19.3033 100.697 19.6094C101.289 19.9156 101.841 20.2932 102.351 20.7423C102.861 21.1812 103.31 21.6761 103.698 22.2273L95.8599 31.6728ZM98.0031 23.0539C97.8092 22.9825 97.6153 22.9366 97.4214 22.9162C97.2377 22.8958 97.0438 22.8855 96.8396 22.8855C96.2681 22.8855 95.7272 22.9927 95.2169 23.207C94.7168 23.4111 94.278 23.7071 93.9003 24.0949C93.5329 24.4828 93.2421 24.9522 93.0277 25.5034C92.8134 26.0443 92.7062 26.6566 92.7062 27.3404C92.7062 27.4935 92.7114 27.667 92.7216 27.8609C92.742 28.0548 92.7675 28.2539 92.7981 28.458C92.8389 28.6519 92.8849 28.8407 92.9359 29.0244C92.9869 29.2081 93.0533 29.3714 93.1349 29.5143L98.0031 23.0539Z" fill="white"/>
<path d="M121.533 35.6837H120.522L118.9 33.4333C118.502 33.7906 118.078 34.1273 117.629 34.4437C117.19 34.7499 116.726 35.0204 116.236 35.2551C115.746 35.4796 115.241 35.6582 114.72 35.7909C114.21 35.9236 113.69 35.9899 113.159 35.9899C112.006 35.9899 110.919 35.7756 109.898 35.347C108.888 34.9081 108 34.306 107.234 33.5405C106.479 32.7649 105.882 31.8514 105.443 30.8002C105.004 29.7388 104.785 28.5855 104.785 27.3404C104.785 26.1055 105.004 24.9573 105.443 23.8959C105.882 22.8345 106.479 21.916 107.234 21.1403C108 20.3647 108.888 19.7574 109.898 19.3186C110.919 18.8797 112.006 18.6603 113.159 18.6603C113.526 18.6603 113.904 18.6909 114.292 18.7522C114.69 18.8134 115.072 18.9154 115.44 19.0583C115.818 19.191 116.17 19.3696 116.496 19.5941C116.823 19.8187 117.098 20.0942 117.323 20.4208V12.7664H121.533V35.6837ZM117.323 27.3404C117.323 26.7689 117.211 26.2178 116.986 25.6871C116.772 25.1462 116.476 24.6716 116.098 24.2633C115.721 23.8449 115.277 23.5132 114.766 23.2683C114.266 23.0131 113.73 22.8855 113.159 22.8855C112.587 22.8855 112.046 22.9876 111.536 23.1917C111.036 23.3958 110.597 23.6918 110.22 24.0796C109.852 24.4573 109.561 24.9216 109.347 25.4727C109.133 26.0239 109.025 26.6464 109.025 27.3404C109.025 27.9426 109.133 28.5141 109.347 29.055C109.561 29.5959 109.852 30.0705 110.22 30.4787C110.597 30.887 111.036 31.2085 111.536 31.4432C112.046 31.6779 112.587 31.7953 113.159 31.7953C113.73 31.7953 114.266 31.6728 114.766 31.4279C115.277 31.1727 115.721 30.841 116.098 30.4328C116.476 30.0144 116.772 29.5398 116.986 29.0091C117.211 28.4682 117.323 27.912 117.323 27.3404Z" fill="white"/>
<path d="M136.398 27.3404C136.398 26.7689 136.285 26.2178 136.061 25.6871C135.847 25.1462 135.551 24.6716 135.173 24.2633C134.795 23.8449 134.351 23.5132 133.841 23.2683C133.341 23.0131 132.805 22.8855 132.234 22.8855C131.662 22.8855 131.121 22.9825 130.611 23.1764C130.111 23.3703 129.672 23.6561 129.294 24.0337C128.927 24.4113 128.636 24.8808 128.422 25.4421C128.207 25.9932 128.1 26.626 128.1 27.3404C128.1 28.0242 128.207 28.6417 128.422 29.1928C128.636 29.7337 128.927 30.1981 129.294 30.5859C129.672 30.9737 130.111 31.2748 130.611 31.4891C131.121 31.6932 131.662 31.7953 132.234 31.7953C132.805 31.7953 133.341 31.6728 133.841 31.4279C134.351 31.1727 134.795 30.841 135.173 30.4328C135.551 30.0144 135.847 29.5398 136.061 29.0091C136.285 28.4682 136.398 27.912 136.398 27.3404ZM140.608 33.6171C140.608 34.7703 140.388 35.8521 139.949 36.8625C139.511 37.8729 138.908 38.7557 138.143 39.511C137.388 40.2662 136.5 40.8632 135.479 41.3021C134.469 41.741 133.387 41.9604 132.234 41.9604L130.136 41.9298V37.7504L132.203 37.7811C132.856 37.7811 133.412 37.6943 133.872 37.5208C134.331 37.3575 134.719 37.1279 135.035 36.8319C135.352 36.5461 135.602 36.2145 135.785 35.8368C135.979 35.4592 136.132 35.0612 136.245 34.6427C136.081 34.9081 135.847 35.1275 135.54 35.301C135.234 35.4643 134.892 35.597 134.515 35.6991C134.147 35.8113 133.759 35.8879 133.351 35.9287C132.953 35.9695 132.581 35.9899 132.234 35.9899C131.08 35.9899 129.994 35.7909 128.973 35.3929C127.963 34.9949 127.075 34.4284 126.309 33.6936C125.554 32.9486 124.957 32.0402 124.518 30.9686C124.079 29.897 123.86 28.6876 123.86 27.3404C123.86 26.1055 124.079 24.9573 124.518 23.8959C124.957 22.8345 125.554 21.916 126.309 21.1403C127.075 20.3647 127.963 19.7574 128.973 19.3186C129.994 18.8797 131.08 18.6603 132.234 18.6603C132.764 18.6603 133.29 18.7266 133.811 18.8593C134.331 18.992 134.836 19.1757 135.326 19.4104C135.816 19.6452 136.28 19.9207 136.719 20.2371C137.168 20.5535 137.587 20.8954 137.975 21.2628L139.597 19.3186H140.608V33.6171Z" fill="white"/>
<path d="M150.329 31.6728C150.492 31.7239 150.655 31.7596 150.819 31.78C150.982 31.7902 151.145 31.7953 151.309 31.7953C151.717 31.7953 152.11 31.7392 152.487 31.6269C152.865 31.5146 153.217 31.3564 153.544 31.1523C153.88 30.938 154.176 30.6829 154.432 30.3869C154.697 30.0807 154.911 29.7439 155.075 29.3765L158.136 32.4536C157.748 33.0047 157.299 33.4997 156.789 33.9385C156.289 34.3774 155.743 34.7499 155.151 35.0561C154.569 35.3623 153.952 35.5919 153.299 35.745C152.656 35.9083 151.992 35.9899 151.309 35.9899C150.155 35.9899 149.068 35.7756 148.048 35.347C147.037 34.9183 146.149 34.3213 145.384 33.5558C144.629 32.7904 144.032 31.882 143.593 30.8308C143.154 29.7694 142.935 28.606 142.935 27.3404C142.935 26.0443 143.154 24.8604 143.593 23.7888C144.032 22.7171 144.629 21.8037 145.384 21.0485C146.149 20.2932 147.037 19.7064 148.048 19.288C149.068 18.8695 150.155 18.6603 151.309 18.6603C151.992 18.6603 152.661 18.7419 153.314 18.9052C153.967 19.0685 154.585 19.3033 155.166 19.6094C155.758 19.9156 156.309 20.2932 156.82 20.7423C157.33 21.1812 157.779 21.6761 158.167 22.2273L150.329 31.6728ZM152.472 23.0539C152.278 22.9825 152.084 22.9366 151.89 22.9162C151.707 22.8958 151.513 22.8855 151.309 22.8855C150.737 22.8855 150.196 22.9927 149.686 23.207C149.186 23.4111 148.747 23.7071 148.369 24.0949C148.002 24.4828 147.711 24.9522 147.497 25.5034C147.282 26.0443 147.175 26.6566 147.175 27.3404C147.175 27.4935 147.18 27.667 147.19 27.8609C147.211 28.0548 147.236 28.2539 147.267 28.458C147.308 28.6519 147.354 28.8407 147.405 29.0244C147.456 29.2081 147.522 29.3714 147.604 29.5143L152.472 23.0539Z" fill="white"/>
<defs>
<linearGradient id="paint0_linear_557_76" x1="2.42499" y1="4.53517" x2="37.0438" y2="7.28719" gradientUnits="userSpaceOnUse">
<stop stop-color="#70FF8F"/>
<stop offset="1" stop-color="#BEF856"/>
</linearGradient>
</defs>
</svg>
